<?xml version="1.0" encoding="UTF-8" standalone="no"?>
<svg
   xmlns:dc="http://purl.org/dc/elements/1.1/"
   xmlns:cc="http://creativecommons.org/ns#"
   xmlns:rdf="http://www.w3.org/1999/02/22-rdf-syntax-ns#"
   xmlns:svg="http://www.w3.org/2000/svg"
   xmlns="http://www.w3.org/2000/svg"
   xmlns:sodipodi="http://sodipodi.sourceforge.net/DTD/sodipodi-0.dtd"
   xmlns:inkscape="http://www.inkscape.org/namespaces/inkscape"
   id="svg8"
   viewBox="0 0 367.60894 367.60895"
   version="1.1"
   sodipodi:docname="logo-hexagons-02-compact-background-square.svg"
   inkscape:version="0.92.4 (5da689c313, 2019-01-14)"
   width="367.60895"
   height="367.60895"
   inkscape:export-filename="/home/rkdarst/git/aalto-scicomp-graphics/logo-hexagons-02-compact-background-square.svg.png"
   inkscape:export-xdpi="159.87"
   inkscape:export-ydpi="159.87">
  <metadata
     id="metadata38">
    <rdf:RDF>
      <cc:Work
         rdf:about="">
        <dc:format>image/svg+xml</dc:format>
        <dc:type
           rdf:resource="http://purl.org/dc/dcmitype/StillImage" />
        <dc:title>asc_logo_nimbussans</dc:title>
      </cc:Work>
    </rdf:RDF>
  </metadata>
  <sodipodi:namedview
     pagecolor="#ffffff"
     bordercolor="#666666"
     borderopacity="1"
     objecttolerance="10"
     gridtolerance="10"
     guidetolerance="10"
     inkscape:pageopacity="0"
     inkscape:pageshadow="2"
     inkscape:window-width="1127"
     inkscape:window-height="692"
     id="namedview36"
     showgrid="false"
     inkscape:zoom="0.77808184"
     inkscape:cx="27.68806"
     inkscape:cy="135.84685"
     inkscape:window-x="1725"
     inkscape:window-y="1027"
     inkscape:window-maximized="0"
     inkscape:current-layer="svg8"
     fit-margin-top="0"
     fit-margin-left="0"
     fit-margin-right="0"
     fit-margin-bottom="0" />
  <defs
     id="defs4">
    <style
       id="style2">.cls-1{fill:none;stroke:#000;stroke-linecap:round;stroke-miterlimit:11.34;stroke-width:5.67px;}</style>
  </defs>
  <title
     id="title6">asc_logo_nimbussans</title>
  <path
     sodipodi:type="star"
     style="opacity:1;vector-effect:none;fill:#ffffff;fill-opacity:1;fill-rule:evenodd;stroke:none;stroke-width:3.54149294;stroke-linecap:round;stroke-linejoin:round;stroke-miterlimit:4;stroke-dasharray:none;stroke-dashoffset:0;stroke-opacity:1;paint-order:stroke fill markers"
     id="path851"
     sodipodi:sides="6"
     sodipodi:cx="148.25789"
     sodipodi:cy="171.79121"
     sodipodi:r1="172.23756"
     sodipodi:r2="149.16211"
     sodipodi:arg1="1.5707963"
     sodipodi:arg2="2.0943951"
     inkscape:flatsided="true"
     inkscape:rounded="0"
     inkscape:randomized="0"
     d="M 148.25789,344.02878 -0.90421488,257.91 -0.9042195,85.672436 148.25788,-0.4463501 297.41999,85.672428 297.42,257.90999 Z"
     transform="matrix(1.0672695,0,0,1.0671567,25.573351,0.47632887)" />
  <g
     id="g3961"
     transform="translate(33.679474,12.149474)">
    <path
       id="path3935"
       class="cls-1"
       d="M 155.62,9.21 82,51.73"
       transform="translate(-5.49,-6.38)"
       inkscape:connector-curvature="0"
       style="fill:none;stroke:#000000;stroke-width:5.67000008px;stroke-linecap:round;stroke-miterlimit:11.34000015" />
    <path
       id="path3943"
       class="cls-1"
       d="m 155.62,9.21 73.65,42.52"
       transform="translate(-5.49,-6.38)"
       inkscape:connector-curvature="0"
       style="fill:none;stroke:#000000;stroke-width:5.67000008px;stroke-linecap:round;stroke-miterlimit:11.34000015" />
    <path
       id="path3945"
       class="cls-1"
       d="m 155.62,179.29 73.65,-42.52"
       transform="translate(-5.49,-6.38)"
       inkscape:connector-curvature="0"
       style="fill:none;stroke:#000000;stroke-width:5.67000008px;stroke-linecap:round;stroke-miterlimit:11.34000015" />
    <path
       id="path3947"
       class="cls-1"
       d="m 229.27,51.73 v 85"
       transform="translate(-5.49,-6.38)"
       inkscape:connector-curvature="0"
       style="fill:none;stroke:#000000;stroke-width:5.67000008px;stroke-linecap:round;stroke-miterlimit:11.34000015" />
    <path
       id="path3949"
       class="cls-1"
       d="M 155.62,179.29 82,136.77"
       transform="translate(-5.49,-6.38)"
       inkscape:connector-curvature="0"
       style="fill:none;stroke:#000000;stroke-width:5.67000008px;stroke-linecap:round;stroke-miterlimit:11.34000015" />
    <path
       id="path3951"
       class="cls-1"
       d="m 82,51.73 v 85"
       transform="translate(-5.49,-6.38)"
       inkscape:connector-curvature="0"
       style="fill:none;stroke:#000000;stroke-width:5.67000008px;stroke-linecap:round;stroke-miterlimit:11.34000015" />
  </g>
  <path
     d="m 171.03948,122.95947 -4.85,15.41 h -18.72 l 26.79,-76.699996 h 21.51 l 24.42,76.699996 h -19.59 l -4.14,-15.41 z m 13.57,-44.189996 -9.31,29.999996 h 17.36 z"
     id="path15"
     inkscape:connector-curvature="0" />
  <g
     id="g3975"
     transform="translate(33.679474,12.149474)">
    <path
       id="path3963"
       class="cls-1"
       d="M 82,136.77 8.33,179.29"
       transform="translate(-5.49,-6.38)"
       inkscape:connector-curvature="0"
       style="fill:none;stroke:#000000;stroke-width:5.67000008px;stroke-linecap:round;stroke-miterlimit:11.34000015" />
    <path
       id="path3965"
       class="cls-1"
       d="m 82,136.77 73.65,42.52"
       transform="translate(-5.49,-6.38)"
       inkscape:connector-curvature="0"
       style="fill:none;stroke:#000000;stroke-width:5.67000008px;stroke-linecap:round;stroke-miterlimit:11.34000015" />
    <path
       id="path3967"
       class="cls-1"
       d="m 82,306.85 73.65,-42.52"
       transform="translate(-5.49,-6.38)"
       inkscape:connector-curvature="0"
       style="fill:none;stroke:#000000;stroke-width:5.67000008px;stroke-linecap:round;stroke-miterlimit:11.34000015" />
    <path
       id="path3969"
       class="cls-1"
       d="m 155.62,179.29 v 85"
       transform="translate(-5.49,-6.38)"
       inkscape:connector-curvature="0"
       style="fill:none;stroke:#000000;stroke-width:5.67000008px;stroke-linecap:round;stroke-miterlimit:11.34000015" />
    <path
       id="path3971"
       class="cls-1"
       d="M 82,306.85 8.33,264.33"
       transform="translate(-5.49,-6.38)"
       inkscape:connector-curvature="0"
       style="fill:none;stroke:#000000;stroke-width:5.67000008px;stroke-linecap:round;stroke-miterlimit:11.34000015" />
    <path
       id="path3973"
       class="cls-1"
       d="m 8.33,179.29 v 85"
       transform="translate(-5.49,-6.38)"
       inkscape:connector-curvature="0"
       style="fill:none;stroke:#000000;stroke-width:5.67000008px;stroke-linecap:round;stroke-miterlimit:11.34000015" />
  </g>
  <path
     d="m 124.18947,213.25947 v -1.26 c 0,-6.33 -5.17,-10.12 -13.8,-10.12 -8,0 -13.109996,3 -13.109996,7.82 0,3.22 2.3,5.4 6.999996,6.55 l 15.52,3.57 c 16.39001,3.95 22.79001,10.23 22.79001,22.19 0,16 -12.07,25.65 -32.08001,25.65 -20.699996,0 -32.659996,-9.89 -32.779996,-27 h 17.25 c 0.35,8.74 5.289996,12.65 15.759996,12.65 8.85,0 14.26001,-3.33 14.26001,-8.74 0,-3.68 -2.76001,-6.32 -8.28001,-7.7 l -13.92,-3.45 c -8.159996,-2 -13.219996,-4.14 -16.669996,-7.13 -3.8,-3.34 -6.1,-8.86 -6.1,-15.07 0,-14.83 11.5,-23.69 30.819996,-23.69 12.77,0 21.62001,3.91 26.45001,11.62 2.3,3.68 3.45,7.59 4.14,14.14 z"
     id="path24"
     inkscape:connector-curvature="0" />
  <g
     id="g3989"
     transform="translate(33.679474,12.149474)">
    <path
       id="path3977"
       class="cls-1"
       d="m 229.27,136.77 -73.65,42.52"
       transform="translate(-5.49,-6.38)"
       inkscape:connector-curvature="0"
       style="fill:none;stroke:#000000;stroke-width:5.67000008px;stroke-linecap:round;stroke-miterlimit:11.34000015" />
    <path
       id="path3979"
       class="cls-1"
       d="m 229.27,136.77 73.64,42.52"
       transform="translate(-5.49,-6.38)"
       inkscape:connector-curvature="0"
       style="fill:none;stroke:#000000;stroke-width:5.67000008px;stroke-linecap:round;stroke-miterlimit:11.34000015" />
    <path
       id="path3981"
       class="cls-1"
       d="m 229.27,306.85 73.64,-42.52"
       transform="translate(-5.49,-6.38)"
       inkscape:connector-curvature="0"
       style="fill:none;stroke:#000000;stroke-width:5.67000008px;stroke-linecap:round;stroke-miterlimit:11.34000015" />
    <path
       id="path3983"
       class="cls-1"
       d="m 302.91,179.29 v 85"
       transform="translate(-5.49,-6.38)"
       inkscape:connector-curvature="0"
       style="fill:none;stroke:#000000;stroke-width:5.67000008px;stroke-linecap:round;stroke-miterlimit:11.34000015" />
    <path
       id="path3985"
       class="cls-1"
       d="M 229.27,306.85 155.62,264.33"
       transform="translate(-5.49,-6.38)"
       inkscape:connector-curvature="0"
       style="fill:none;stroke:#000000;stroke-width:5.67000008px;stroke-linecap:round;stroke-miterlimit:11.34000015" />
    <path
       id="path3987"
       class="cls-1"
       d="m 155.62,179.29 v 85"
       transform="translate(-5.49,-6.38)"
       inkscape:connector-curvature="0"
       style="fill:none;stroke:#000000;stroke-width:5.67000008px;stroke-linecap:round;stroke-miterlimit:11.34000015" />
  </g>
  <path
     d="m 274.52948,213.76947 c -1.72,-7.36 -7.36,-11.61 -15.52,-11.61 -12.65,0 -19.9,9.31 -19.9,25.41 0,16.1 7.25,25.53 19.44,25.53 9,0 14.14,-4.37 16.21,-13.57 h 18.29 c -2.07,17.37 -15.07,28.18 -34,28.18 -22.66,0 -37.15,-15.64 -37.15,-40.14 0,-24.5 14.26,-40 37,-40 18.52,0 31.17,9.89 33.24,26.22 z"
     id="path33"
     inkscape:connector-curvature="0" />
</svg>
