<svg id="svg8" xmlns="http://www.w3.org/2000/svg" viewBox="0 0 300.25 303.31"><defs><style>.cls-1{fill:none;stroke:#000;stroke-linecap:round;stroke-miterlimit:11.34;stroke-width:5.67px;}.cls-2{isolation:isolate;}</style></defs><title>asc_logo</title><g id="g3961"><path id="path3935" class="cls-1" d="M155.62,9.21,82,51.73" transform="translate(-5.49 -6.38)"/><path id="path3943" class="cls-1" d="M155.62,9.21l73.65,42.52" transform="translate(-5.49 -6.38)"/><path id="path3945" class="cls-1" d="M155.62,179.29l73.65-42.52" transform="translate(-5.49 -6.38)"/><path id="path3947" class="cls-1" d="M229.27,51.73v85" transform="translate(-5.49 -6.38)"/><path id="path3949" class="cls-1" d="M155.62,179.29,82,136.77" transform="translate(-5.49 -6.38)"/><path id="path3951" class="cls-1" d="M82,51.73v85" transform="translate(-5.49 -6.38)"/></g><g id="text3994" class="cls-2"><g class="cls-2"><path d="M146.47,57.47H165L192.77,131H175l-5.17-15.12H140.93L135.62,131H118.47Zm-1.08,45.76h20.09l-9.91-28.94Z" transform="translate(-5.49 -6.38)"/></g></g><g id="g3975"><path id="path3963" class="cls-1" d="M82,136.77,8.33,179.29" transform="translate(-5.49 -6.38)"/><path id="path3965" class="cls-1" d="M82,136.77l73.65,42.52" transform="translate(-5.49 -6.38)"/><path id="path3967" class="cls-1" d="M82,306.85l73.65-42.52" transform="translate(-5.49 -6.38)"/><path id="path3969" class="cls-1" d="M155.62,179.29v85" transform="translate(-5.49 -6.38)"/><path id="path3971" class="cls-1" d="M82,306.85,8.33,264.33" transform="translate(-5.49 -6.38)"/><path id="path3973" class="cls-1" d="M8.33,179.29v85" transform="translate(-5.49 -6.38)"/></g><g id="text3998" class="cls-2"><g class="cls-2"><path d="M65.1,236q.77,5,3,7.53,4.08,4.54,14,4.54a31.86,31.86,0,0,0,9.61-1.19q7-2.29,7-8.54a6.23,6.23,0,0,0-3.43-5.64q-3.44-1.94-10.89-3.44l-8.49-1.75q-12.53-2.6-17.2-5.64Q50.74,216.8,50.74,206a20.6,20.6,0,0,1,7.75-16.42Q66.26,183,81.28,183q12.56,0,21.41,6.16T112,207.06H96.23a10.51,10.51,0,0,0-6.32-9.43,23,23,0,0,0-9.77-1.85q-6.49,0-10.36,2.4a7.47,7.47,0,0,0-3.88,6.69,6.26,6.26,0,0,0,3.82,5.88q2.46,1.31,10.42,3.05l13.77,3q9,2,13.56,5.34,7,5.19,7,15,0,10.08-8.31,16.74T82.7,260.61q-15.49,0-24.37-6.56t-8.87-18Z" transform="translate(-5.49 -6.38)"/></g></g><g id="g3989"><path id="path3977" class="cls-1" d="M229.27,136.77l-73.65,42.52" transform="translate(-5.49 -6.38)"/><path id="path3979" class="cls-1" d="M229.27,136.77l73.64,42.52" transform="translate(-5.49 -6.38)"/><path id="path3981" class="cls-1" d="M229.27,306.85l73.64-42.52" transform="translate(-5.49 -6.38)"/><path id="path3983" class="cls-1" d="M302.91,179.29v85" transform="translate(-5.49 -6.38)"/><path id="path3985" class="cls-1" d="M229.27,306.85l-73.65-42.52" transform="translate(-5.49 -6.38)"/><path id="path3987" class="cls-1" d="M155.62,179.29v85" transform="translate(-5.49 -6.38)"/></g><g id="text4002" class="cls-2"><g class="cls-2"><path d="M205.65,192.39q9.48-9.09,24.12-9.08,19.57,0,28.63,12.17,5,6.84,5.37,13.73H247.38a20.45,20.45,0,0,0-4-8q-4.38-4.78-13-4.79a16.35,16.35,0,0,0-13.82,6.76q-5.06,6.76-5,19.14t5.33,18.54A17.16,17.16,0,0,0,230.41,247q8.43,0,12.86-5.29a22.65,22.65,0,0,0,4.06-8.54h16.28a32.53,32.53,0,0,1-10.76,19.57q-8.67,7.53-22.19,7.53-16.74,0-26.32-10.18t-9.58-28Q194.76,202.82,205.65,192.39Z" transform="translate(-5.49 -6.38)"/></g></g></svg>