<?xml version="1.0" encoding="UTF-8" standalone="no"?>
<svg
   xmlns:dc="http://purl.org/dc/elements/1.1/"
   xmlns:cc="http://creativecommons.org/ns#"
   xmlns:rdf="http://www.w3.org/1999/02/22-rdf-syntax-ns#"
   xmlns:svg="http://www.w3.org/2000/svg"
   xmlns="http://www.w3.org/2000/svg"
   xmlns:xlink="http://www.w3.org/1999/xlink"
   id="svg8"
   version="1.1"
   viewBox="0 0 70 70"
   height="70mm"
   width="70mm">
  <defs
     id="defs2">
    <linearGradient
       id="linearGradient7488-8">
      <stop
         id="stop7484"
         offset="0"
         style="stop-color:#999999;stop-opacity:1;" />
      <stop
         id="stop7486"
         offset="1"
         style="stop-color:#999999;stop-opacity:0;" />
    </linearGradient>
    <linearGradient
       gradientUnits="userSpaceOnUse"
       y2="47.244091"
       x2="147.29251"
       y1="75.31126"
       x1="111.13251"
       id="linearGradient7490"
       xlink:href="#linearGradient7488-8" />
    <linearGradient
       gradientUnits="userSpaceOnUse"
       y2="115.27559"
       x2="225.84851"
       y1="160.47407"
       x1="130.81446"
       id="linearGradient7492"
       xlink:href="#linearGradient7488-8" />
    <linearGradient
       gradientUnits="userSpaceOnUse"
       y2="160.6849"
       x2="131.2642"
       y1="205.98425"
       x1="36.004837"
       id="linearGradient7494"
       xlink:href="#linearGradient7488-8" />
    <linearGradient
       gradientUnits="userSpaceOnUse"
       y2="41.574799"
       x2="222.57535"
       y1="75.633348"
       x1="33.974703"
       id="linearGradient7496"
       xlink:href="#linearGradient7488-8" />
  </defs>
  <metadata
     id="metadata5">
    <rdf:RDF>
      <cc:Work
         rdf:about="">
        <dc:format>image/svg+xml</dc:format>
        <dc:type
           rdf:resource="http://purl.org/dc/dcmitype/StillImage" />
        <dc:title></dc:title>
      </cc:Work>
    </rdf:RDF>
  </metadata>
  <g
     style="display:none"
     id="layer10">
    <path
       id="path7523"
       d="m 8.660254,29.999998 c 0,-1.666697 0,-3.333597 0,-5.000132 0,-1.666534 0,-3.333465 0.7217298,-4.583357 0.7217302,-1.249892 2.1653352,-2.083358 3.6085542,-2.9166 1.443218,-0.833243 2.886817,-1.666705 4.32997,-2.49991"
       style="fill:none;stroke:#000000;stroke-width:0.26458332px;stroke-linecap:butt;stroke-linejoin:miter;stroke-opacity:1" />
    <path
       id="path7527"
       d="m 51.961523,14.999999 c 1.44346,0.833382 2.886836,1.666715 4.321286,2.494895 1.43445,0.828181 2.895676,1.67182 3.617322,2.921615 0.721646,1.249795 0.721646,2.916558 0.721646,4.583358 0,1.666799 0,3.3332 0,5.000131"
       style="fill:none;stroke:#000000;stroke-width:0.26458332px;stroke-linecap:butt;stroke-linejoin:miter;stroke-opacity:1" />
    <path
       id="path7539"
       d="m 43.301269,59.999998 c -1.443061,0.833152 -2.886437,1.666486 -4.341856,2.506773 -1.455419,0.840287 -2.874709,1.659715 -4.318356,1.659738 -1.443646,2.4e-5 -2.886709,-0.833129 -4.342241,-1.673481 -1.455532,-0.840352 -2.874595,-1.659648 -4.318054,-2.49303"
       style="fill:none;stroke:#000000;stroke-width:0.26458332px;stroke-linecap:butt;stroke-linejoin:miter;stroke-opacity:1" />
  </g>
  <g
     style="display:none"
     id="layer9">
    <path
       id="path7510"
       d="m 10.103828,19.999933 c 1.15e-4,-0.833448 1.443491,-1.666782 5.051929,-3.750114 3.608438,-2.083333 9.35349,-5.400241 12.979712,-7.4938408 3.626222,-2.0936002 5.062481,-2.9228246 6.505351,-2.9229379 1.44287,-1.133e-4 2.88703,0.833673 6.495472,2.9170078 3.608441,2.0833349 9.381939,5.4166659 12.990379,7.4999989 3.608439,2.083334 5.051815,2.916667 5.052035,3.749825 2.19e-4,0.833158 -1.442584,1.666161 -5.052979,3.750624 -3.610396,2.084463 -9.380526,5.415849 -12.989116,7.499269 -3.60859,2.083421 -5.051908,2.916721 -6.495789,2.916608 C 33.19694,34.16626 31.754558,33.333501 28.145595,31.249866 24.536631,29.16623 18.764035,25.83342 15.155554,23.750062 11.547072,21.666704 10.103713,20.833381 10.103828,19.999933 Z"
       style="fill:none;fill-opacity:1;stroke:#000000;stroke-width:0.26458332px;stroke-linecap:butt;stroke-linejoin:miter;stroke-opacity:1" />
    <path
       id="path7514"
       d="M 15.155529,53.750047 C 11.54709,51.666713 10.103714,50.833379 9.3819839,49.583175 8.660254,48.332971 8.660254,46.666401 8.660254,42.500264 c 0,-4.166137 0,-10.833862 0,-14.966891 0,-4.13303 0,-5.866972 0.7216151,-6.283548 0.7216149,-0.416577 2.1652199,0.416889 5.7734919,2.500126 3.608271,2.083236 9.38211,5.416763 12.979379,7.493647 3.597269,2.076884 5.062984,2.923115 5.78463,4.17291 0.721647,1.249796 0.721647,2.91656 0.721647,7.096779 0,4.180218 0,10.81978 0,14.98648 0,4.166699 0,5.833299 -0.721761,6.250056 -0.721762,0.416758 -2.164908,-0.416443 -5.773515,-2.499873 -3.608607,-2.08343 -9.381773,-5.41657 -12.990212,-7.499903 z"
       style="fill:none;fill-opacity:1;stroke:#000000;stroke-width:0.26458332px;stroke-linecap:butt;stroke-linejoin:miter;stroke-opacity:1" />
    <path
       id="path7518"
       d="m 41.136519,61.249818 c -3.608439,2.083334 -5.051815,2.916668 -5.773658,2.499778 -0.721844,-0.41689 -0.721844,-2.083196 -0.721844,-6.249333 0,-4.166137 0,-10.833862 0,-15.025792 0,-4.19193 0,-5.808071 0.72173,-7.057963 0.72173,-1.249892 2.165332,-2.083357 5.773146,-4.166329 3.607813,-2.082972 9.382567,-5.417027 12.990968,-7.500338 3.6084,-2.083311 5.051854,-2.916689 5.773385,-2.500246 0.721531,0.416444 0.721531,2.083472 0.721531,6.250668 0,4.167195 0,10.832805 0,14.999504 0,4.1667 0,5.8333 -0.721646,7.083408 -0.721645,1.250107 -2.164791,2.083308 -5.773857,4.167004 -3.609065,2.083695 -9.381316,5.416306 -12.989755,7.499639 z"
       style="fill:none;fill-opacity:1;stroke:#000000;stroke-width:0.26458332px;stroke-linecap:butt;stroke-linejoin:miter;stroke-opacity:1" />
    <path
       id="path7621"
       d="m 8.660254,29.999998 c 0,-1.645161 0,-3.333597 0,-5.002266 0,-1.668669 0,-3.331331 0.7217298,-4.581223 0.7217302,-1.249892 2.1653352,-2.083358 3.6085542,-2.9166 1.443218,-0.833243 2.886907,-1.666757 4.32997,-2.49991"
       style="fill:none;stroke:#000000;stroke-width:0.26458332px;stroke-linecap:butt;stroke-linejoin:miter;stroke-opacity:1" />
    <path
       id="path7625"
       d="m 51.961523,14.999999 c 1.44346,0.833382 2.886836,1.666715 4.314416,2.490929 1.42758,0.824214 2.902546,1.675786 3.624192,2.914194 0.721646,1.238408 0.721646,2.927945 0.721646,4.594745 0,1.666799 0,3.3332 0,5.000131"
       style="fill:none;stroke:#000000;stroke-width:0.26458332px;stroke-linecap:butt;stroke-linejoin:miter;stroke-opacity:1" />
    <path
       id="path7629"
       d="m 25.980762,59.999998 c 1.443459,0.833382 2.886834,1.666715 4.330168,2.500024 1.443334,0.83331 2.886794,1.666692 4.330243,1.666601 1.443449,-9e-5 2.886907,-0.833471 4.330126,-1.666714 1.443218,-0.833243 2.886909,-1.666759 4.32997,-2.499911"
       style="fill:none;stroke:#000000;stroke-width:0.26458332px;stroke-linecap:butt;stroke-linejoin:miter;stroke-opacity:1" />
  </g>
  <g
     style="display:inline"
     transform="translate(0,-4)"
     id="layer2">
    <path
       id="path4526"
       d="M 34.64102,8.9999952 8.6602596,23.999995"
       style="fill:none;stroke:#000000;stroke-width:0.26499999;stroke-linecap:round;stroke-linejoin:miter;stroke-miterlimit:4;stroke-dasharray:none;stroke-opacity:1;paint-order:stroke fill markers" />
    <path
       id="path4528"
       d="m 8.6602596,23.999995 25.9807604,15"
       style="fill:none;stroke:#000000;stroke-width:0.26499999;stroke-linecap:round;stroke-linejoin:miter;stroke-miterlimit:4;stroke-dasharray:none;stroke-opacity:1;paint-order:stroke fill markers" />
    <path
       id="path4530"
       d="m 34.64102,38.999995 v 30 0 0"
       style="fill:none;stroke:#000000;stroke-width:0.26499999;stroke-linecap:round;stroke-linejoin:miter;stroke-miterlimit:4;stroke-dasharray:none;stroke-opacity:1;paint-order:stroke fill markers" />
    <path
       id="path4543"
       d="M 34.641022,38.999996 60.621784,23.999997"
       style="fill:none;stroke:#000000;stroke-width:0.26458332px;stroke-linecap:round;stroke-linejoin:miter;stroke-opacity:1" />
    <path
       id="path4545"
       d="m 34.641022,8.999997 25.980762,15"
       style="fill:none;stroke:#000000;stroke-width:0.26458332px;stroke-linecap:round;stroke-linejoin:miter;stroke-opacity:1" />
    <path
       id="path4618"
       d="M 34.641022,68.999996 60.621784,53.999997"
       style="fill:none;stroke:#000000;stroke-width:0.26458332px;stroke-linecap:round;stroke-linejoin:miter;stroke-opacity:1" />
    <path
       id="path4620"
       d="m 60.621784,23.999997 v 30"
       style="fill:none;stroke:#000000;stroke-width:0.26458332px;stroke-linecap:round;stroke-linejoin:miter;stroke-opacity:1" />
    <path
       id="path4622"
       d="M 34.641022,68.999996 8.6602606,53.999997"
       style="fill:none;stroke:#000000;stroke-width:0.26458332px;stroke-linecap:round;stroke-linejoin:miter;stroke-opacity:1" />
    <path
       id="path4624"
       d="m 8.6602606,23.999997 v 30"
       style="fill:none;stroke:#000000;stroke-width:0.26458332px;stroke-linecap:round;stroke-linejoin:miter;stroke-opacity:1" />
  </g>
  <g
     style="display:none"
     id="layer8">
    <path
       transform="scale(0.26458333)"
       id="path7330"
       d="m 81.681068,216.48514 -48.113991,-27.76088 -0.01101,-55.80357 c -0.0061,-30.69197 0.09527,-55.803575 0.225172,-55.803575 0.129901,0 21.901403,12.495536 48.381115,27.767855 l 48.144936,27.76786 0.0118,55.80357 c 0.006,30.69197 -0.10879,55.80044 -0.25611,55.7966 -0.14733,-0.004 -21.91916,-12.49937 -48.381851,-27.76786 z m 27.875672,-6.68086 c 3.41262,-1.87628 5.16835,-4.87646 5.8544,-10.00399 0.52367,-3.91383 -0.0701,-9.85558 -1.37262,-13.73574 -3.23711,-9.64317 -9.3058,-16.52647 -25.677452,-29.12417 -15.332839,-11.79835 -19.142204,-15.32003 -21.289395,-19.68159 -1.344764,-2.7316 -1.601675,-6.3304 -0.586551,-8.21637 3.435385,-6.38249 22.177292,4.21915 28.121374,15.90728 0.442661,0.87042 1.162122,3.04007 1.598808,4.82143 l 0.793971,3.23884 7.469315,4.3529 c 4.10813,2.3941 7.67022,4.36285 7.91575,4.375 0.5427,0.0269 0.55497,-0.71604 0.0764,-4.63012 -1.03137,-8.43587 -4.64366,-15.83998 -11.76982,-24.12461 -5.148921,-5.98595 -14.081793,-12.87652 -22.503036,-17.35824 -14.681009,-7.8131 -24.199557,-7.3872 -27.596987,1.2348 -0.567272,1.43962 -0.771528,2.94535 -0.896244,6.60692 -0.195518,5.74023 0.593813,9.80238 2.785314,14.33412 3.828726,7.91732 9.031088,13.39966 22.825035,24.05344 16.409764,12.67411 19.713575,15.77541 22.250893,20.88698 1.317282,2.65374 1.465204,3.22114 1.493471,5.72877 0.03436,3.04693 -0.431357,4.18631 -2.179167,5.33152 -4.669136,3.05933 -20.854247,-5.8458 -27.472011,-15.11524 -2.165302,-3.03292 -3.665251,-6.40149 -4.311843,-9.68351 l -0.549756,-2.79048 -8.174352,-4.70902 -8.174353,-4.70902 v 1.55059 c 0,6.00982 3.465367,15.57115 8.17998,22.56946 6.218773,9.23108 16.684638,18.14836 28.605735,24.3731 8.495875,4.43621 13.013553,5.79993 18.750001,5.65994 3.57819,-0.0873 4.09843,-0.18926 5.83311,-1.14299 z"
       style="opacity:1;vector-effect:none;fill:#999999;fill-opacity:1;stroke:#000000;stroke-width:1.88976383;stroke-linecap:round;stroke-linejoin:round;stroke-miterlimit:4;stroke-dasharray:none;stroke-dashoffset:0;stroke-opacity:1;paint-order:stroke fill markers" />
    <path
       transform="scale(0.26458333)"
       id="path7332"
       d="M 83.164289,103.9596 C 57.124507,88.90159 35.460328,76.34033 35.021668,76.045687 34.257907,75.53268 36.270084,74.329283 82.496986,47.65283 109.04707,32.331401 130.92827,19.841239 131.12186,19.896915 c 0.1936,0.05568 21.96164,12.575952 48.37343,27.822837 38.54225,22.249503 47.92906,27.807899 47.55346,28.158763 -0.67552,0.631029 -95.89358,55.530645 -96.24514,55.491805 -0.16185,-0.0179 -21.59954,-12.35271 -47.639321,-27.41072 z M 151.79357,87.819476 C 167.39082,71.11649 180.1522,57.27589 180.1522,57.06259 c 0,-0.213303 -3.56619,-2.452771 -7.92486,-4.9766 l -7.92486,-4.588779 -53.41443,16.322419 c -29.377929,8.977328 -53.414421,16.412742 -53.414421,16.523139 0,0.294053 14.448096,8.560061 14.962071,8.560061 0.239743,0 5.008021,-1.458029 10.596175,-3.240065 5.588154,-1.782035 10.366018,-3.188285 10.617475,-3.125 0.350229,0.08814 25.3054,14.341786 25.92277,14.806304 0.0738,0.05554 -2.45744,2.789591 -5.625,6.075671 -3.16757,3.28609 -5.75921,6.06867 -5.75921,6.18352 0,0.27927 14.35589,8.56869 14.85566,8.578 0.21525,0.004 13.15275,-13.65879 28.75,-30.361784 z"
       style="opacity:1;vector-effect:none;fill:#999999;fill-opacity:1;stroke:#000000;stroke-width:1.88976383;stroke-linecap:round;stroke-linejoin:round;stroke-miterlimit:4;stroke-dasharray:none;stroke-dashoffset:0;stroke-opacity:1;paint-order:stroke fill markers" />
    <path
       transform="scale(0.26458333)"
       id="path7334"
       d="M 131.75934,188.42414 V 132.5883 l 47.23215,-27.26695 c 25.97767,-14.996821 47.75496,-27.574366 48.39397,-27.950098 l 1.16183,-0.683149 -0.0904,55.969527 -0.0904,55.96954 -48.1749,27.8164 c -26.49619,15.29902 -48.2328,27.8164 -48.30357,27.8164 -0.0708,0 -0.12868,-25.12612 -0.12868,-55.83583 z m 37.03503,19.73552 c 5.58151,-1.40408 11.65426,-4.42187 18.50069,-9.19369 16.08411,-11.21033 26.84675,-28.01128 28.61137,-44.66362 0.15473,-1.4602 0.11405,-2.23012 -0.11322,-2.14286 -0.1951,0.0749 -3.99254,2.22548 -8.43876,4.77905 -7.12576,4.0925 -8.08499,4.7487 -8.09207,5.53572 -0.0157,1.74855 -1.45168,6.87597 -2.655,9.4804 -4.02717,8.71628 -13.08189,16.73481 -21.39757,18.9489 -6.72119,1.78954 -11.47335,-1.84972 -13.33877,-10.21502 -0.84798,-3.80269 -0.82816,-13.58079 0.0373,-18.39285 2.47137,-13.7414 9.57899,-24.71971 20.07624,-31.00944 8.66905,-5.19431 14.88697,-4.13577 16.94325,2.88444 0.24453,0.83482 0.53969,1.51419 0.65592,1.5097 0.11623,-0.004 3.74704,-2.06085 8.06847,-4.5697 l 7.85714,-4.56155 -0.0914,-2.12672 c -0.41585,-9.67549 -7.37896,-15.13321 -17.53213,-13.74178 -10.09629,1.38363 -22.87781,8.79342 -32.74734,18.98451 -11.0145,11.37336 -17.96481,25.40233 -20.41249,41.20197 -0.84428,5.4498 -0.83443,15.98622 0.019,20.31157 2.85118,14.45035 11.06218,20.24804 24.0494,16.98097 z"
       style="opacity:1;vector-effect:none;fill:#999999;fill-opacity:1;stroke:#000000;stroke-width:1.88976383;stroke-linecap:round;stroke-linejoin:round;stroke-miterlimit:4;stroke-dasharray:none;stroke-dashoffset:0;stroke-opacity:1;paint-order:stroke fill markers" />
    <path
       transform="scale(0.26458333)"
       id="path7336"
       d="m 120.93616,81.598201 -8.8589,-5.1234 3.32318,-1.088755 c 10.37669,-3.399649 36.09354,-11.510486 36.19005,-11.413979 0.12653,0.126532 -21.22036,22.568423 -21.57285,22.679434 -0.12242,0.03856 -4.20909,-2.23543 -9.08148,-5.0533 z"
       style="opacity:1;vector-effect:none;fill:#999999;fill-opacity:1;stroke:#000000;stroke-width:1.88976383;stroke-linecap:round;stroke-linejoin:round;stroke-miterlimit:4;stroke-dasharray:none;stroke-dashoffset:0;stroke-opacity:1;paint-order:stroke fill markers" />
  </g>
  <g
     id="g7482"
     style="display:none">
    <path
       style="opacity:1;vector-effect:none;fill:url(#linearGradient7494);fill-opacity:1;fill-rule:evenodd;stroke:#000000;stroke-width:1.88976383;stroke-linecap:round;stroke-linejoin:round;stroke-miterlimit:4;stroke-dasharray:none;stroke-dashoffset:0;stroke-opacity:1;paint-order:stroke fill markers"
       d="m 81.681068,216.48514 -48.113991,-27.76088 -0.01101,-55.80357 c -0.0061,-30.69197 0.09527,-55.803575 0.225172,-55.803575 0.129901,0 21.901403,12.495536 48.381115,27.767855 l 48.144936,27.76786 0.0118,55.80357 c 0.006,30.69197 -0.10879,55.80044 -0.25611,55.7966 -0.14733,-0.004 -21.91916,-12.49937 -48.381851,-27.76786 z m 27.875672,-6.68086 c 3.41262,-1.87628 5.16835,-4.87646 5.8544,-10.00399 0.52367,-3.91383 -0.0701,-9.85558 -1.37262,-13.73574 -3.23711,-9.64317 -9.3058,-16.52647 -25.677452,-29.12417 -15.332839,-11.79835 -19.142204,-15.32003 -21.289395,-19.68159 -1.344764,-2.7316 -1.601675,-6.3304 -0.586551,-8.21637 3.435385,-6.38249 22.177292,4.21915 28.121374,15.90728 0.442661,0.87042 1.162122,3.04007 1.598808,4.82143 l 0.793971,3.23884 7.469315,4.3529 c 4.10813,2.3941 7.67022,4.36285 7.91575,4.375 0.5427,0.0269 0.55497,-0.71604 0.0764,-4.63012 -1.03137,-8.43587 -4.64366,-15.83998 -11.76982,-24.12461 -5.148921,-5.98595 -14.081793,-12.87652 -22.503036,-17.35824 -14.681009,-7.8131 -24.199557,-7.3872 -27.596987,1.2348 -0.567272,1.43962 -0.771528,2.94535 -0.896244,6.60692 -0.195518,5.74023 0.593813,9.80238 2.785314,14.33412 3.828726,7.91732 9.031088,13.39966 22.825035,24.05344 16.409764,12.67411 19.713575,15.77541 22.250893,20.88698 1.317282,2.65374 1.465204,3.22114 1.493471,5.72877 0.03436,3.04693 -0.431357,4.18631 -2.179167,5.33152 -4.669136,3.05933 -20.854247,-5.8458 -27.472011,-15.11524 -2.165302,-3.03292 -3.665251,-6.40149 -4.311843,-9.68351 l -0.549756,-2.79048 -8.174352,-4.70902 -8.174353,-4.70902 v 1.55059 c 0,6.00982 3.465367,15.57115 8.17998,22.56946 6.218773,9.23108 16.684638,18.14836 28.605735,24.3731 8.495875,4.43621 13.013553,5.79993 18.750001,5.65994 3.57819,-0.0873 4.09843,-0.18926 5.83311,-1.14299 z"
       id="path7474"
       transform="scale(0.26458333)" />
    <path
       style="opacity:1;vector-effect:none;fill:url(#linearGradient7496);fill-opacity:1;fill-rule:evenodd;stroke:#000000;stroke-width:1.88976383;stroke-linecap:round;stroke-linejoin:round;stroke-miterlimit:4;stroke-dasharray:none;stroke-dashoffset:0;stroke-opacity:1;paint-order:stroke fill markers"
       d="M 83.164289,103.9596 C 57.124507,88.90159 35.460328,76.34033 35.021668,76.045687 34.257907,75.53268 36.270084,74.329283 82.496986,47.65283 109.04707,32.331401 130.92827,19.841239 131.12186,19.896915 c 0.1936,0.05568 21.96164,12.575952 48.37343,27.822837 38.54225,22.249503 47.92906,27.807899 47.55346,28.158763 -0.67552,0.631029 -95.89358,55.530645 -96.24514,55.491805 -0.16185,-0.0179 -21.59954,-12.35271 -47.639321,-27.41072 z M 151.79357,87.819476 C 167.39082,71.11649 180.1522,57.27589 180.1522,57.06259 c 0,-0.213303 -3.56619,-2.452771 -7.92486,-4.9766 l -7.92486,-4.588779 -53.41443,16.322419 c -29.377929,8.977328 -53.414421,16.412742 -53.414421,16.523139 0,0.294053 14.448096,8.560061 14.962071,8.560061 0.239743,0 5.008021,-1.458029 10.596175,-3.240065 5.588154,-1.782035 10.366018,-3.188285 10.617475,-3.125 0.350229,0.08814 25.3054,14.341786 25.92277,14.806304 0.0738,0.05554 -2.45744,2.789591 -5.625,6.075671 -3.16757,3.28609 -5.75921,6.06867 -5.75921,6.18352 0,0.27927 14.35589,8.56869 14.85566,8.578 0.21525,0.004 13.15275,-13.65879 28.75,-30.361784 z"
       id="path7476"
       transform="scale(0.26458333)" />
    <path
       style="opacity:1;vector-effect:none;fill:url(#linearGradient7492);fill-opacity:1;fill-rule:evenodd;stroke:#000000;stroke-width:1.88976383;stroke-linecap:round;stroke-linejoin:round;stroke-miterlimit:4;stroke-dasharray:none;stroke-dashoffset:0;stroke-opacity:1;paint-order:stroke fill markers"
       d="M 131.75934,188.42414 V 132.5883 l 47.23215,-27.26695 c 25.97767,-14.996821 47.75496,-27.574366 48.39397,-27.950098 l 1.16183,-0.683149 -0.0904,55.969527 -0.0904,55.96954 -48.1749,27.8164 c -26.49619,15.29902 -48.2328,27.8164 -48.30357,27.8164 -0.0708,0 -0.12868,-25.12612 -0.12868,-55.83583 z m 37.03503,19.73552 c 5.58151,-1.40408 11.65426,-4.42187 18.50069,-9.19369 16.08411,-11.21033 26.84675,-28.01128 28.61137,-44.66362 0.15473,-1.4602 0.11405,-2.23012 -0.11322,-2.14286 -0.1951,0.0749 -3.99254,2.22548 -8.43876,4.77905 -7.12576,4.0925 -8.08499,4.7487 -8.09207,5.53572 -0.0157,1.74855 -1.45168,6.87597 -2.655,9.4804 -4.02717,8.71628 -13.08189,16.73481 -21.39757,18.9489 -6.72119,1.78954 -11.47335,-1.84972 -13.33877,-10.21502 -0.84798,-3.80269 -0.82816,-13.58079 0.0373,-18.39285 2.47137,-13.7414 9.57899,-24.71971 20.07624,-31.00944 8.66905,-5.19431 14.88697,-4.13577 16.94325,2.88444 0.24453,0.83482 0.53969,1.51419 0.65592,1.5097 0.11623,-0.004 3.74704,-2.06085 8.06847,-4.5697 l 7.85714,-4.56155 -0.0914,-2.12672 c -0.41585,-9.67549 -7.37896,-15.13321 -17.53213,-13.74178 -10.09629,1.38363 -22.87781,8.79342 -32.74734,18.98451 -11.0145,11.37336 -17.96481,25.40233 -20.41249,41.20197 -0.84428,5.4498 -0.83443,15.98622 0.019,20.31157 2.85118,14.45035 11.06218,20.24804 24.0494,16.98097 z"
       id="path7478"
       transform="scale(0.26458333)" />
    <path
       style="opacity:1;vector-effect:none;fill:url(#linearGradient7490);fill-opacity:1;fill-rule:evenodd;stroke:#000000;stroke-width:1.88976383;stroke-linecap:round;stroke-linejoin:round;stroke-miterlimit:4;stroke-dasharray:none;stroke-dashoffset:0;stroke-opacity:1;paint-order:stroke fill markers"
       d="m 120.93616,81.598201 -8.8589,-5.1234 3.32318,-1.088755 c 10.37669,-3.399649 36.09354,-11.510486 36.19005,-11.413979 0.12653,0.126532 -21.22036,22.568423 -21.57285,22.679434 -0.12242,0.03856 -4.20909,-2.23543 -9.08148,-5.0533 z"
       id="path7480"
       transform="scale(0.26458333)" />
  </g>
  <g
     style="display:none"
     id="layer11">
    <path
       transform="scale(0.26458333)"
       id="path7633"
       d="m 123.61196,239.98378 c -3.1078,-1.16657 -6.8833,-3.29623 -50.889042,-28.70505 -11.392857,-6.57821 -22.5625,-13.07672 -24.821428,-14.44113 -10.19607,-6.15851 -12.773274,-9.18451 -13.951755,-16.38133 -0.588668,-3.59491 -0.907486,-79.43812 -0.374468,-89.081429 0.421829,-7.63167 0.724588,-9.101743 2.096784,-10.181112 1.316096,-1.035241 2.560188,-0.766322 7.517859,1.625036 5.252206,2.53343 70.32063,40.060115 76.14015,43.912045 6.43292,4.25794 8.57442,6.76415 9.83853,11.51415 1.04792,3.93761 1.29911,16.74246 1.1194,57.06446 -0.17865,40.0832 -0.25778,42.22558 -1.62908,44.10715 -0.77502,1.0634 -3.04534,1.31856 -5.04695,0.56721 z m -14.73131,-29.84642 c 4.57647,-1.97086 6.71591,-6.57124 6.6467,-14.29222 -0.0871,-9.71802 -4.13604,-18.33426 -12.55999,-26.72802 -3.25737,-3.24571 -7.062227,-6.37337 -18.734677,-15.40027 -15.069915,-11.65433 -18.22545,-15.3366 -18.274505,-21.32502 -0.02525,-3.08274 0.683409,-4.30379 2.965569,-5.10978 1.3448,-0.47494 1.732164,-0.46558 3.896218,0.0942 6.0903,1.57549 13.818646,6.78003 18.335657,12.34786 3.092953,3.81249 4.717818,7.34176 5.477911,11.89825 0.214189,1.284 0.392539,1.41301 8.081867,5.84614 4.32457,2.49324 7.90926,4.47383 7.96598,4.40131 0.0567,-0.0725 -0.0236,-1.739 -0.17855,-3.70328 -1.29839,-16.46305 -15.423587,-33.24262 -36.868583,-43.79682 -6.563557,-3.23027 -9.529262,-4.05961 -14.518472,-4.06 -4.779832,-3.8e-4 -6.101468,0.4927 -8.439223,3.14853 -4.321843,4.90987 -4.259873,16.32401 0.136087,25.06543 3.952986,7.86056 8.68509,12.62424 25.445993,25.61576 11.833186,9.172 16.948754,14.00708 18.997322,17.95567 2.675611,5.15722 2.495661,10.27492 -0.414204,11.77967 -4.360375,2.25484 -16.076693,-3.24303 -23.94026,-11.23394 -4.679833,-4.75562 -7.097743,-9.06325 -7.939861,-14.14527 l -0.373931,-2.2566 -8.182297,-4.70298 c -4.500264,-2.58663 -8.243767,-4.6415 -8.318897,-4.56637 -0.07513,0.0751 0.02142,1.41981 0.214549,2.98818 1.355277,11.00589 6.726483,21.19072 16.097057,30.52309 9.151887,9.11456 24.060119,17.9107 34.217665,20.18906 3.280505,0.73583 7.872745,0.49754 10.264875,-0.53262 z"
       style="display:inline;opacity:1;vector-effect:none;fill:#999999;fill-opacity:1;fill-rule:evenodd;stroke:#000000;stroke-width:1.88976395;stroke-linecap:round;stroke-linejoin:round;stroke-miterlimit:4;stroke-dasharray:none;stroke-dashoffset:0;stroke-opacity:1;paint-order:stroke fill markers" />
    <path
       transform="scale(0.26458333)"
       id="path7635"
       d="m 125.5532,127.33159 c -4.26033,-1.48312 -7.95557,-3.52697 -43.365996,-23.98587 C 44.599317,81.628756 43.37252,80.891181 40.867553,78.503495 c -3.063945,-2.920489 -2.584289,-4.3524 2.652158,-7.917464 3.927092,-2.673636 5.200343,-3.423468 37.723479,-22.215827 41.60517,-24.040098 42.61543,-24.579892 47.59933,-25.432854 2.08266,-0.356433 2.86522,-0.327516 5.19736,0.192053 4.73479,1.054845 7.64042,2.661495 67.0759,37.089235 23.08372,13.371147 24.1088,14.314957 19.86685,18.291832 -2.60428,2.441543 -4.26745,3.441461 -41.65257,25.04201 -33.46132,19.33343 -41.25117,23.58913 -44.58082,24.35507 -3.13548,0.72128 -5.98175,0.54301 -9.19604,-0.57596 z m 26.24749,-39.461334 c 15.59992,-16.731182 28.41157,-30.580517 28.47033,-30.776297 0.0899,-0.29958 -13.99572,-8.656019 -15.68013,-9.302389 -0.30697,-0.117796 -22.46892,6.478105 -49.24877,14.657557 -58.67283,17.920633 -57.801241,17.649654 -57.783826,17.96494 0.0077,0.138875 3.325976,2.144643 7.374011,4.457264 l 7.360064,4.204761 10.190392,-3.249668 c 5.604718,-1.787314 10.44465,-3.268818 10.755404,-3.292229 0.310753,-0.02339 6.377478,3.314979 13.481615,7.418633 l 12.91661,7.461196 -4.58349,4.840556 c -2.52092,2.66231 -5.08091,5.31259 -5.68888,5.88952 -0.60796,0.57693 -1.09922,1.21978 -1.09169,1.42857 0.0139,0.38533 14.15188,8.70438 14.80773,8.71315 0.19643,0.002 13.12072,-13.68438 28.72063,-30.415564 z"
       style="display:inline;opacity:1;vector-effect:none;fill:#999999;fill-opacity:1;fill-rule:evenodd;stroke:#000000;stroke-width:1.88976395;stroke-linecap:round;stroke-linejoin:round;stroke-miterlimit:4;stroke-dasharray:none;stroke-dashoffset:0;stroke-opacity:1;paint-order:stroke fill markers" />
    <path
       transform="scale(0.26458333)"
       id="path7639"
       d="m 133.34636,239.62555 c -1.66083,-2.11141 -1.69552,-3.16697 -1.68492,-51.28041 0.009,-40.37089 0.0721,-45.49108 0.59434,-48.11523 1.30052,-6.53523 3.74591,-9.54349 11.89571,-14.63382 5.56522,-3.47601 68.28481,-39.58473 72.85714,-41.945077 2.55357,-1.318215 5.41857,-2.591346 6.36667,-2.829179 1.55628,-0.3904 1.81659,-0.36358 2.67857,0.275981 1.60576,1.191421 1.90229,2.802001 2.22199,12.068752 0.3809,11.040663 0.38205,66.989393 0.001,78.392853 -0.34067,10.21118 -0.80581,12.82518 -2.84301,15.97712 -2.56635,3.97063 -5.25384,5.79594 -27.35439,18.57869 -57.2198,33.09538 -58.91237,34.03043 -62.0754,34.29273 -1.74013,0.1443 -1.98635,0.0718 -2.6583,-0.78241 z M 167.47012,208.498 c 8.66316,-1.76682 20.13935,-8.54019 28.96117,-17.0932 8.21021,-7.96004 13.87381,-16.62005 16.97444,-25.95502 1.79156,-5.39379 3.20925,-13.17607 2.40027,-13.17607 -0.19865,0 -3.93437,2.0711 -8.30161,4.60245 l -7.94044,4.60246 -0.67187,3.32566 c -1.93862,9.59589 -7.71001,17.47291 -16.90223,23.0688 -8.75166,5.3277 -15.40448,4.4161 -18.59066,-2.54736 -1.65734,-3.62216 -2.07453,-6.31541 -2.07711,-13.40915 -0.003,-7.56729 0.52931,-11.23055 2.47632,-17.0497 3.2531,-9.72275 8.86271,-17.39339 16.37578,-22.39242 6.00943,-3.99853 11.61721,-5.39918 14.84926,-3.70888 1.92266,1.00551 2.67735,1.99124 3.7118,4.84812 l 0.79049,2.18311 8.02716,-4.62269 c 4.41495,-2.54248 8.07755,-4.77203 8.13913,-4.95457 0.30665,-0.90899 -1.07658,-6.79079 -2.07299,-8.81477 -2.76687,-5.62031 -9.66973,-8.10402 -17.781,-6.39776 -7.52563,1.58306 -17.14083,6.70711 -25.18473,13.42123 -17.31784,14.45493 -27.45911,37.12743 -26.58298,59.43068 0.46026,11.71654 3.8379,19.60854 9.91126,23.1581 3.42598,2.0023 8.30546,2.53805 13.48854,1.48098 z"
       style="display:inline;opacity:1;vector-effect:none;fill:#999999;fill-opacity:1;fill-rule:evenodd;stroke:#000000;stroke-width:1.88976395;stroke-linecap:round;stroke-linejoin:round;stroke-miterlimit:4;stroke-dasharray:none;stroke-dashoffset:0;stroke-opacity:1;paint-order:stroke fill markers" />
    <path
       transform="scale(0.26458333)"
       id="path7653"
       d="m 34.970241,79.708296 c 0,-0.320746 1.108219,-2.384094 1.85309,-3.450195 l 0.736196,-1.053684 0.115218,0.803156 c 0.155219,1.08199 0.56151,1.816474 1.629428,2.945639 0.493045,0.521323 0.824522,0.946989 0.736614,0.945926 -0.08791,-0.0011 -0.554299,-0.121599 -1.036426,-0.267857 -1.112725,-0.337557 -2.616584,-0.340718 -3.414855,-0.0072 -0.345915,0.144532 -0.619265,0.181696 -0.619265,0.08419 z"
       style="display:inline;opacity:1;vector-effect:none;fill:#4d4d4d;fill-opacity:1;fill-rule:evenodd;stroke:#000000;stroke-width:1.88976395;stroke-linecap:round;stroke-linejoin:round;stroke-miterlimit:4;stroke-dasharray:none;stroke-dashoffset:0;stroke-opacity:1;paint-order:stroke fill markers" />
    <path
       transform="scale(0.26458333)"
       id="path7657"
       d="m 222.27859,79.266646 c 0.99235,-0.896534 1.77801,-2.199805 1.91099,-3.170017 l 0.11363,-0.828967 0.60012,0.754205 c 0.60952,0.766011 1.71301,2.749467 1.93203,3.47271 0.11816,0.390183 0.10931,0.392508 -0.50956,0.133929 -0.80163,-0.334944 -2.24021,-0.333008 -3.49842,0.0047 -1.33798,0.35913 -1.34607,0.353725 -0.54879,-0.366568 z"
       style="display:inline;opacity:1;vector-effect:none;fill:#4d4d4d;fill-opacity:1;fill-rule:evenodd;stroke:#000000;stroke-width:1.88976395;stroke-linecap:round;stroke-linejoin:round;stroke-miterlimit:4;stroke-dasharray:none;stroke-dashoffset:0;stroke-opacity:1;paint-order:stroke fill markers" />
    <path
       transform="scale(0.26458333)"
       id="path7659"
       d="m 128.54167,241.70049 c -0.44322,-0.12834 -0.4436,-0.1302 -0.0525,-0.2596 0.87292,-0.2888 1.77533,-1.82539 2.20833,-3.76024 l 0.23129,-1.0335 0.29245,1.22518 c 0.37028,1.55122 0.88138,2.54005 1.67141,3.23371 0.59292,0.52058 0.60386,0.55102 0.23373,0.65029 -0.53879,0.14452 -4.04006,0.10187 -4.58472,-0.0558 z"
       style="display:inline;opacity:1;vector-effect:none;fill:#4d4d4d;fill-opacity:1;fill-rule:evenodd;stroke:#000000;stroke-width:1.88976395;stroke-linecap:round;stroke-linejoin:round;stroke-miterlimit:4;stroke-dasharray:none;stroke-dashoffset:0;stroke-opacity:1;paint-order:stroke fill markers" />
    <path
       transform="scale(0.26458333)"
       id="path7661"
       d="m 120.9573,81.611691 c -7.38457,-4.264144 -8.89398,-5.225904 -8.41291,-5.360485 0.75591,-0.211465 38.84925,-12.366957 39.35087,-12.556762 0.32852,-0.12431 -10.49825,11.318641 -19.09711,20.183979 l -2.84169,2.929747 z"
       style="display:inline;opacity:1;vector-effect:none;fill:#999999;fill-opacity:1;fill-rule:evenodd;stroke:#000000;stroke-width:1.88976383;stroke-linecap:round;stroke-linejoin:round;stroke-miterlimit:4;stroke-dasharray:none;stroke-dashoffset:0;stroke-opacity:1;paint-order:stroke fill markers" />
    <path
       transform="scale(0.26458333)"
       id="path7665"
       d="m 130.92007,141.22374 c -0.003,-0.0131 -0.0338,-0.23333 -0.0693,-0.48929 -0.47481,-3.42317 -1.27129,-5.76912 -2.68737,-7.91534 -1.02623,-1.55534 -2.68926,-3.25005 -4.6411,-4.72949 -0.18576,-0.1408 -0.33351,-0.26023 -0.32834,-0.2654 0.005,-0.005 0.27079,0.096 0.59027,0.22484 2.61733,1.05541 4.63905,1.5283 6.78385,1.58676 2.37676,0.0648 4.75874,-0.45281 7.72493,-1.6786 0.18551,-0.0767 0.34163,-0.13505 0.34693,-0.12974 0.005,0.005 -0.16396,0.14334 -0.37614,0.30676 -3.39444,2.61428 -5.28376,5.11698 -6.36498,8.4314 -0.40947,1.25519 -0.70519,2.66623 -0.96141,4.58732 -0.007,0.0521 -0.0148,0.0839 -0.0174,0.0708 z"
       style="display:inline;opacity:1;vector-effect:none;fill:#4d4d4d;fill-opacity:1;fill-rule:evenodd;stroke:#000000;stroke-width:1.88976383;stroke-linecap:round;stroke-linejoin:round;stroke-miterlimit:4;stroke-dasharray:none;stroke-dashoffset:0;stroke-opacity:1;paint-order:stroke fill markers" />
  </g>
  <g
     style="display:inline;opacity:0.99599998"
     transform="translate(0,-227)"
     id="layer1">
    <text
       transform="matrix(0.8660254,0.5,-1,0.57735027,0,0)"
       id="text4522"
       y="207.38965"
       x="256.26022"
       style="font-style:normal;font-variant:normal;font-weight:bold;font-stretch:normal;font-size:29.63333321px;line-height:1.25;font-family:'Nimbus Sans L';-inkscape-font-specification:'Nimbus Sans L, Bold';font-variant-ligatures:normal;font-variant-caps:normal;font-variant-numeric:normal;font-feature-settings:normal;text-align:start;letter-spacing:0px;word-spacing:0px;writing-mode:lr-tb;text-anchor:start;fill:#000000;fill-opacity:1;stroke:none;stroke-width:0.26458332"
       xml:space="preserve"><tspan
         style="font-style:normal;font-variant:normal;font-weight:bold;font-stretch:normal;font-size:29.63333321px;font-family:'Nimbus Sans L';-inkscape-font-specification:'Nimbus Sans L, Bold';font-variant-ligatures:normal;font-variant-caps:normal;font-variant-numeric:normal;font-feature-settings:normal;text-align:start;writing-mode:lr-tb;text-anchor:start;stroke-width:0.26458332"
         y="207.38965"
         x="256.26022"
         id="tspan4520">A</tspan></text>
    <flowRoot
       transform="matrix(0.26458333,0,0,0.26458333,0,223)"
       style="font-style:normal;font-variant:normal;font-weight:normal;font-stretch:normal;font-size:18.66666603px;line-height:1.25;font-family:Lato;-inkscape-font-specification:Lato;font-variant-ligatures:normal;font-variant-caps:normal;font-variant-numeric:normal;font-feature-settings:normal;text-align:start;letter-spacing:0px;word-spacing:0px;writing-mode:lr-tb;text-anchor:start;fill:#000000;fill-opacity:1;stroke:none"
       id="flowRoot4566"
       xml:space="preserve"><flowRegion
         id="flowRegion4568"><rect
           y="156.85039"
           x="81.82917"
           height="75.590553"
           width="65.463341"
           id="rect4570" /></flowRegion><flowPara
         id="flowPara4572" /></flowRoot>    <text
       transform="skewY(30)"
       id="text4576"
       y="267.63837"
       x="11.797558"
       style="font-style:normal;font-variant:normal;font-weight:bold;font-stretch:normal;font-size:29.63333321px;line-height:1.25;font-family:'Nimbus Sans L';-inkscape-font-specification:'Nimbus Sans L, Bold';font-variant-ligatures:normal;font-variant-caps:normal;font-variant-numeric:normal;font-feature-settings:normal;text-align:start;letter-spacing:0px;word-spacing:0px;writing-mode:lr-tb;text-anchor:start;fill:#000000;fill-opacity:1;stroke:none;stroke-width:0.26458332"
       xml:space="preserve"><tspan
         style="font-style:normal;font-variant:normal;font-weight:bold;font-stretch:normal;font-size:29.63333321px;font-family:'Nimbus Sans L';-inkscape-font-specification:'Nimbus Sans L, Bold';font-variant-ligatures:normal;font-variant-caps:normal;font-variant-numeric:normal;font-feature-settings:normal;text-align:start;writing-mode:lr-tb;text-anchor:start;stroke-width:0.26458332"
         y="267.63837"
         x="11.797558"
         id="tspan4574">S</tspan></text>
    <text
       transform="skewY(-30)"
       id="text4580"
       y="307.63837"
       x="36.830051"
       style="font-style:normal;font-variant:normal;font-weight:bold;font-stretch:normal;font-size:29.63333321px;line-height:1.25;font-family:'Nimbus Sans L';-inkscape-font-specification:'Nimbus Sans L, Bold';font-variant-ligatures:normal;font-variant-caps:normal;font-variant-numeric:normal;font-feature-settings:normal;text-align:start;letter-spacing:0px;word-spacing:0px;writing-mode:lr-tb;text-anchor:start;fill:#000000;fill-opacity:1;stroke:none;stroke-width:0.26458332"
       xml:space="preserve"><tspan
         style="font-style:normal;font-variant:normal;font-weight:bold;font-stretch:normal;font-size:29.63333321px;font-family:'Nimbus Sans L';-inkscape-font-specification:'Nimbus Sans L, Bold';font-variant-ligatures:normal;font-variant-caps:normal;font-variant-numeric:normal;font-feature-settings:normal;text-align:start;writing-mode:lr-tb;text-anchor:start;stroke-width:0.26458332"
         y="307.63837"
         x="36.830051"
         id="tspan4578">C</tspan></text>
  </g>
  <g
     style="display:none"
     id="layer5">
    <text
       transform="matrix(0.8660254,0.5,-0.99999999,0.57735027,0,0)"
       id="text4584"
       y="12.426394"
       x="35.721325"
       style="font-style:normal;font-variant:normal;font-weight:normal;font-stretch:normal;font-size:3.52777767px;line-height:1.25;font-family:Lato;-inkscape-font-specification:'Lato, Normal';font-variant-ligatures:normal;font-variant-caps:normal;font-variant-numeric:normal;font-feature-settings:normal;text-align:start;letter-spacing:0px;word-spacing:0px;writing-mode:lr-tb;text-anchor:start;display:inline;opacity:0.99599998;fill:#000000;fill-opacity:1;stroke:none;stroke-width:0.26458332"
       xml:space="preserve"><tspan
         style="font-style:normal;font-variant:normal;font-weight:normal;font-stretch:normal;font-size:3.52777767px;font-family:Lato;-inkscape-font-specification:'Lato, Normal';font-variant-ligatures:normal;font-variant-caps:normal;font-variant-numeric:normal;font-feature-settings:normal;text-align:start;writing-mode:lr-tb;text-anchor:start;stroke-width:0.26458332"
         y="12.426394"
         x="35.721325"
         id="tspan4582">Aalto</tspan></text>
    <text
       transform="skewY(30)"
       id="text4588"
       y="44.442429"
       x="14.96459"
       style="font-style:normal;font-variant:normal;font-weight:normal;font-stretch:normal;font-size:3.52777767px;line-height:1.25;font-family:Lato;-inkscape-font-specification:'Lato, Normal';font-variant-ligatures:normal;font-variant-caps:normal;font-variant-numeric:normal;font-feature-settings:normal;text-align:start;letter-spacing:0px;word-spacing:0px;writing-mode:lr-tb;text-anchor:start;display:inline;opacity:0.99599998;fill:#000000;fill-opacity:1;stroke:none;stroke-width:0.26458332"
       xml:space="preserve"><tspan
         style="font-style:normal;font-variant:normal;font-weight:normal;font-stretch:normal;font-size:3.52777767px;font-family:Lato;-inkscape-font-specification:'Lato, Normal';font-variant-ligatures:normal;font-variant-caps:normal;font-variant-numeric:normal;font-feature-settings:normal;text-align:start;writing-mode:lr-tb;text-anchor:start;stroke-width:0.26458332"
         y="44.442429"
         x="14.96459"
         id="tspan4586">Scientific</tspan></text>
    <text
       transform="skewY(-30)"
       id="text4592"
       y="83.829735"
       x="39.326511"
       style="font-style:normal;font-variant:normal;font-weight:normal;font-stretch:normal;font-size:3.52777767px;line-height:1.25;font-family:Lato;-inkscape-font-specification:'Lato, Normal';font-variant-ligatures:normal;font-variant-caps:normal;font-variant-numeric:normal;font-feature-settings:normal;text-align:start;letter-spacing:0px;word-spacing:0px;writing-mode:lr-tb;text-anchor:start;display:inline;opacity:0.99599998;fill:#000000;fill-opacity:1;stroke:none;stroke-width:0.26458332"
       xml:space="preserve"><tspan
         style="font-style:normal;font-variant:normal;font-weight:normal;font-stretch:normal;font-size:3.52777767px;font-family:Lato;-inkscape-font-specification:'Lato, Normal';font-variant-ligatures:normal;font-variant-caps:normal;font-variant-numeric:normal;font-feature-settings:normal;text-align:start;writing-mode:lr-tb;text-anchor:start;stroke-width:0.26458332"
         y="83.829735"
         x="39.326511"
         id="tspan4590">Computing</tspan></text>
  </g>
  <g
     style="display:inline"
     id="layer6">
    <text
       transform="matrix(0,-1,1,0.57735028,0,0)"
       id="text7075"
       y="12.193191"
       x="-29.93449"
       style="font-style:normal;font-variant:normal;font-weight:normal;font-stretch:normal;font-size:3.52777767px;line-height:1.25;font-family:'Nimbus Sans L';-inkscape-font-specification:'Nimbus Sans L, Normal';font-variant-ligatures:normal;font-variant-caps:normal;font-variant-numeric:normal;font-feature-settings:normal;text-align:center;letter-spacing:0px;word-spacing:0px;writing-mode:lr-tb;text-anchor:middle;display:inline;fill:#000000;fill-opacity:1;stroke:none;stroke-width:0.26458332"
       xml:space="preserve"><tspan
         style="font-style:normal;font-variant:normal;font-weight:normal;font-stretch:normal;font-size:3.52777767px;font-family:'Nimbus Sans L';-inkscape-font-specification:'Nimbus Sans L, Normal';font-variant-ligatures:normal;font-variant-caps:normal;font-variant-numeric:normal;font-feature-settings:normal;text-align:center;writing-mode:lr-tb;text-anchor:middle;stroke-width:0.26458332"
         y="12.193191"
         x="-29.93449"
         id="tspan7073">Scientific</tspan></text>
    <text
       transform="matrix(0.8660254,-0.5,1,0.57735027,0,0)"
       id="text7090"
       y="25.075592"
       x="-0.044723623"
       style="font-style:normal;font-variant:normal;font-weight:normal;font-stretch:normal;font-size:3.52777767px;line-height:1.25;font-family:'Nimbus Sans L';-inkscape-font-specification:'Nimbus Sans L, Normal';font-variant-ligatures:normal;font-variant-caps:normal;font-variant-numeric:normal;font-feature-settings:normal;text-align:center;letter-spacing:0px;word-spacing:0px;writing-mode:lr-tb;text-anchor:middle;fill:#000000;fill-opacity:1;stroke:none;stroke-width:0.26458332"
       xml:space="preserve"><tspan
         style="font-style:normal;font-variant:normal;font-weight:normal;font-stretch:normal;font-size:3.52777767px;font-family:'Nimbus Sans L';-inkscape-font-specification:'Nimbus Sans L, Normal';font-variant-ligatures:normal;font-variant-caps:normal;font-variant-numeric:normal;font-feature-settings:normal;text-align:center;writing-mode:lr-tb;text-anchor:middle;stroke-width:0.26458332"
         y="25.075592"
         x="-0.044723608"
         id="tspan7088">Aalto</tspan></text>
    <text
       transform="matrix(0,-1,1,-0.57735027,0,0)"
       id="text7094"
       y="37.63023"
       x="-69.986824"
       style="font-style:normal;font-variant:normal;font-weight:normal;font-stretch:normal;font-size:3.52777767px;line-height:1.25;font-family:'Nimbus Sans L';-inkscape-font-specification:'Nimbus Sans L, Normal';font-variant-ligatures:normal;font-variant-caps:normal;font-variant-numeric:normal;font-feature-settings:normal;text-align:center;letter-spacing:0px;word-spacing:0px;writing-mode:lr-tb;text-anchor:middle;fill:#000000;fill-opacity:1;stroke:none;stroke-width:0.26458332"
       xml:space="preserve"><tspan
         style="font-style:normal;font-variant:normal;font-weight:normal;font-stretch:normal;font-size:3.52777767px;font-family:'Nimbus Sans L';-inkscape-font-specification:'Nimbus Sans L, Normal';font-variant-ligatures:normal;font-variant-caps:normal;font-variant-numeric:normal;font-feature-settings:normal;text-align:center;writing-mode:lr-tb;text-anchor:middle;stroke-width:0.26458332"
         y="37.63023"
         x="-69.986824"
         id="tspan7092">Computing</tspan></text>
  </g>
  <g
     style="display:none"
     transform="translate(0,-4)"
     id="layer4">
    <text
       transform="rotate(30)"
       id="text4612"
       y="46.421017"
       x="48.060505"
       style="font-style:normal;font-variant:normal;font-weight:normal;font-stretch:normal;font-size:4.93888903px;line-height:1.25;font-family:'Nimbus Sans L';-inkscape-font-specification:'Nimbus Sans L, Normal';font-variant-ligatures:normal;font-variant-caps:normal;font-variant-numeric:normal;font-feature-settings:normal;text-align:start;letter-spacing:0px;word-spacing:0px;writing-mode:lr-tb;text-anchor:start;display:inline;fill:#000000;fill-opacity:1;stroke:none;stroke-width:0.26458332"
       xml:space="preserve"><tspan
         style="font-style:normal;font-variant:normal;font-weight:normal;font-stretch:normal;font-size:4.93888903px;font-family:'Nimbus Sans L';-inkscape-font-specification:'Nimbus Sans L, Normal';font-variant-ligatures:normal;font-variant-caps:normal;font-variant-numeric:normal;font-feature-settings:normal;text-align:start;writing-mode:lr-tb;text-anchor:start;stroke-width:0.26458332"
         y="46.421017"
         x="48.060505"
         id="tspan4610">scicomp.</tspan></text>
    <text
       transform="rotate(-30)"
       id="text4616"
       y="81.091927"
       x="-5.4601388"
       style="font-style:normal;font-variant:normal;font-weight:normal;font-stretch:normal;font-size:4.93888903px;line-height:1.25;font-family:'Nimbus Sans L';-inkscape-font-specification:'Nimbus Sans L, Normal';font-variant-ligatures:normal;font-variant-caps:normal;font-variant-numeric:normal;font-feature-settings:normal;text-align:start;letter-spacing:0px;word-spacing:0px;writing-mode:lr-tb;text-anchor:start;display:inline;fill:#000000;fill-opacity:1;stroke:none;stroke-width:0.26458332"
       xml:space="preserve"><tspan
         style="font-style:normal;font-variant:normal;font-weight:normal;font-stretch:normal;font-size:4.93888903px;font-family:'Nimbus Sans L';-inkscape-font-specification:'Nimbus Sans L, Normal';font-variant-ligatures:normal;font-variant-caps:normal;font-variant-numeric:normal;font-feature-settings:normal;text-align:start;writing-mode:lr-tb;text-anchor:start;stroke-width:0.26458332"
         y="81.091927"
         x="-5.4601388"
         id="tspan4614">aalto.fi</tspan></text>
  </g>
  <g
     id="g8013"
     transform="translate(0,-4)"
     style="display:none">
    <text
       xml:space="preserve"
       style="font-style:normal;font-variant:normal;font-weight:normal;font-stretch:normal;font-size:3.52777767px;line-height:1.25;font-family:'Nimbus Sans L';-inkscape-font-specification:'Nimbus Sans L, Normal';font-variant-ligatures:normal;font-variant-caps:normal;font-variant-numeric:normal;font-feature-settings:normal;text-align:start;letter-spacing:0px;word-spacing:0px;writing-mode:lr-tb;text-anchor:start;display:inline;fill:#000000;fill-opacity:1;stroke:none;stroke-width:0.26458332"
       x="-1.436692"
       y="80.359718"
       id="text8011"
       transform="rotate(-30)"><tspan
         id="tspan8009"
         x="-1.436692"
         y="80.359718"
         style="font-style:normal;font-variant:normal;font-weight:normal;font-stretch:normal;font-size:3.52777767px;font-family:'Nimbus Sans L';-inkscape-font-specification:'Nimbus Sans L, Normal';font-variant-ligatures:normal;font-variant-caps:normal;font-variant-numeric:normal;font-feature-settings:normal;text-align:start;writing-mode:lr-tb;text-anchor:start;stroke-width:0.26458332">scicomp.aalto.fi</tspan></text>
  </g>
  <g
     style="display:none"
     transform="translate(0,-4)"
     id="layer3">
    <text
       transform="rotate(-90)"
       id="text4596"
       y="6.9533939"
       x="-39.010441"
       style="font-style:normal;font-variant:normal;font-weight:normal;font-stretch:normal;font-size:4.93888903px;line-height:1.25;font-family:'Nimbus Sans L';-inkscape-font-specification:'Nimbus Sans L, Normal';font-variant-ligatures:normal;font-variant-caps:normal;font-variant-numeric:normal;font-feature-settings:normal;text-align:center;letter-spacing:0px;word-spacing:0px;writing-mode:lr-tb;text-anchor:middle;display:inline;fill:#000000;fill-opacity:1;stroke:none;stroke-width:0.26458332"
       xml:space="preserve"><tspan
         style="font-style:normal;font-variant:normal;font-weight:normal;font-stretch:normal;font-size:4.93888903px;font-family:'Nimbus Sans L';-inkscape-font-specification:'Nimbus Sans L, Normal';font-variant-ligatures:normal;font-variant-caps:normal;font-variant-numeric:normal;font-feature-settings:normal;text-align:center;writing-mode:lr-tb;text-anchor:middle;stroke-width:0.26458332"
         y="6.9533939"
         x="-39.010441"
         id="tspan4594">COMPUTE</tspan></text>
    <text
       transform="rotate(-30)"
       id="text4600"
       y="23.380648"
       x="10.34583"
       style="font-style:normal;font-variant:normal;font-weight:normal;font-stretch:normal;font-size:4.93888903px;line-height:1.25;font-family:'Nimbus Sans L';-inkscape-font-specification:'Nimbus Sans L, Normal';font-variant-ligatures:normal;font-variant-caps:normal;font-variant-numeric:normal;font-feature-settings:normal;text-align:center;letter-spacing:0px;word-spacing:0px;writing-mode:lr-tb;text-anchor:middle;display:inline;fill:#000000;fill-opacity:1;stroke:none;stroke-width:0.26458332"
       xml:space="preserve"><tspan
         style="font-style:normal;font-variant:normal;font-weight:normal;font-stretch:normal;font-size:4.93888903px;font-family:'Nimbus Sans L';-inkscape-font-specification:'Nimbus Sans L, Normal';font-variant-ligatures:normal;font-variant-caps:normal;font-variant-numeric:normal;font-feature-settings:normal;text-align:center;writing-mode:lr-tb;text-anchor:middle;stroke-width:0.26458332"
         y="23.380648"
         x="10.34583"
         id="tspan4598">DATA MGMT</tspan></text>
    <text
       transform="rotate(30)"
       id="text4604"
       y="-11.292329"
       x="49.521736"
       style="font-style:normal;font-variant:normal;font-weight:normal;font-stretch:normal;font-size:4.93888903px;line-height:1.25;font-family:'Nimbus Sans L';-inkscape-font-specification:'Nimbus Sans L, Normal';font-variant-ligatures:normal;font-variant-caps:normal;font-variant-numeric:normal;font-feature-settings:normal;text-align:center;letter-spacing:0px;word-spacing:0px;writing-mode:lr-tb;text-anchor:middle;display:inline;fill:#000000;fill-opacity:1;stroke:none;stroke-width:0.26458332"
       xml:space="preserve"><tspan
         style="font-style:normal;font-variant:normal;font-weight:normal;font-stretch:normal;font-size:4.93888903px;font-family:'Nimbus Sans L';-inkscape-font-specification:'Nimbus Sans L, Normal';font-variant-ligatures:normal;font-variant-caps:normal;font-variant-numeric:normal;font-feature-settings:normal;text-align:center;writing-mode:lr-tb;text-anchor:middle;stroke-width:0.26458332"
         y="-11.292329"
         x="49.521736"
         id="tspan4602">SOFTWARE</tspan></text>
    <text
       transform="rotate(90)"
       id="text4608"
       y="-62.38084"
       x="39.027191"
       style="font-style:normal;font-variant:normal;font-weight:normal;font-stretch:normal;font-size:4.93888903px;line-height:1.25;font-family:'Nimbus Sans L';-inkscape-font-specification:'Nimbus Sans L, Normal';font-variant-ligatures:normal;font-variant-caps:normal;font-variant-numeric:normal;font-feature-settings:normal;text-align:center;letter-spacing:0px;word-spacing:0px;writing-mode:lr-tb;text-anchor:middle;display:inline;fill:#000000;fill-opacity:1;stroke:none;stroke-width:0.26458332"
       xml:space="preserve"><tspan
         style="font-style:normal;font-variant:normal;font-weight:normal;font-stretch:normal;font-size:4.93888903px;font-family:'Nimbus Sans L';-inkscape-font-specification:'Nimbus Sans L, Normal';font-variant-ligatures:normal;font-variant-caps:normal;font-variant-numeric:normal;font-feature-settings:normal;text-align:center;writing-mode:lr-tb;text-anchor:middle;stroke-width:0.26458332"
         y="-62.38084"
         x="39.027191"
         id="tspan4606">TRAINING</tspan></text>
  </g>
</svg>
