<?xml version="1.0" encoding="UTF-8" standalone="no"?>
<svg
   xmlns:dc="http://purl.org/dc/elements/1.1/"
   xmlns:cc="http://creativecommons.org/ns#"
   xmlns:rdf="http://www.w3.org/1999/02/22-rdf-syntax-ns#"
   xmlns:svg="http://www.w3.org/2000/svg"
   xmlns="http://www.w3.org/2000/svg"
   xmlns:sodipodi="http://sodipodi.sourceforge.net/DTD/sodipodi-0.dtd"
   xmlns:inkscape="http://www.inkscape.org/namespaces/inkscape"
   width="4.4667978cm"
   height="5.1500001cm"
   viewBox="0 0 44.667977 51.500001"
   version="1.1"
   id="svg869"
   inkscape:version="1.0.2 (e86c870879, 2021-01-15)"
   sodipodi:docname="sticker-hexagons-02-nameurl.svg">
  <defs
     id="defs863">
    <inkscape:path-effect
       effect="bspline"
       id="path-effect3114"
       is_visible="true"
       lpeversion="1"
       weight="33.333333"
       steps="2"
       helper_size="0"
       apply_no_weight="true"
       apply_with_weight="true"
       only_selected="false" />
    <style
       id="style1833">.cls-1{fill:none;stroke:#000;stroke-linecap:round;stroke-miterlimit:11.34;stroke-width:5.67px;}</style>
  </defs>
  <sodipodi:namedview
     id="base"
     pagecolor="#ffffff"
     bordercolor="#666666"
     borderopacity="1.0"
     inkscape:pageopacity="0.0"
     inkscape:pageshadow="2"
     inkscape:zoom="2.0100813"
     inkscape:cx="63.309072"
     inkscape:cy="99.411709"
     inkscape:document-units="cm"
     inkscape:current-layer="layer1"
     inkscape:document-rotation="0"
     showgrid="true"
     showguides="true"
     inkscape:window-width="1328"
     inkscape:window-height="817"
     inkscape:window-x="1309"
     inkscape:window-y="921"
     inkscape:window-maximized="0"
     inkscape:snap-global="true"
     units="cm"
     inkscape:snap-bbox="false"
     inkscape:snap-intersection-paths="true"
     inkscape:object-paths="true"
     inkscape:snap-nodes="true"
     inkscape:snap-smooth-nodes="true"
     inkscape:snap-midpoints="false"
     fit-margin-top="0"
     fit-margin-left="0"
     fit-margin-right="0"
     fit-margin-bottom="0">
    <inkscape:grid
       type="axonomgrid"
       id="grid1432"
       spacingy="0.49999999"
       originx="22.333989"
       originy="25.750001"
       empspacing="10" />
  </sodipodi:namedview>
  <metadata
     id="metadata866">
    <rdf:RDF>
      <cc:Work
         rdf:about="">
        <dc:format>image/svg+xml</dc:format>
        <dc:type
           rdf:resource="http://purl.org/dc/dcmitype/StillImage" />
        <dc:title></dc:title>
      </cc:Work>
    </rdf:RDF>
  </metadata>
  <g
     inkscape:groupmode="layer"
     id="layer3"
     inkscape:label="stickermule hexagon template"
     style="display:none"
     transform="translate(0.33694334,0.3500015)">
    <g
       id="g2508"
       transform="matrix(0.03527778,0,0,-0.03527778,-85.952961,204.50564)">
      <path
         d="m 3683.54,4717.01 -623.54,-360 -623.54,360 v 720 l 623.54,360 623.54,-360 z"
         style="fill:none;stroke:#2e3192;stroke-width:5;stroke-linecap:butt;stroke-linejoin:miter;stroke-miterlimit:10;stroke-dasharray:none;stroke-opacity:1"
         id="path2510" />
    </g>
  </g>
  <g
     inkscape:label="sticker"
     inkscape:groupmode="layer"
     id="layer1"
     style="display:inline"
     transform="translate(0.33694334,0.3500015)">
    <g
       id="g1896"
       transform="matrix(0.10658379,0,0,0.10658379,5.9956224,2.4085569)"
       style="stroke-width:1.35929">
      <g
         id="g3961"
         style="stroke-width:1.35929">
        <path
           id="path3935"
           class="cls-1"
           d="M 155.62,9.21 82,51.73"
           transform="translate(-5.49,-6.38)" />
        <path
           id="path3943"
           class="cls-1"
           d="m 155.62,9.21 73.65,42.52"
           transform="translate(-5.49,-6.38)" />
        <path
           id="path3945"
           class="cls-1"
           d="m 155.62,179.29 73.65,-42.52"
           transform="translate(-5.49,-6.38)" />
        <path
           id="path3947"
           class="cls-1"
           d="m 229.27,51.73 v 85"
           transform="translate(-5.49,-6.38)" />
        <path
           id="path3949"
           class="cls-1"
           d="M 155.62,179.29 82,136.77"
           transform="translate(-5.49,-6.38)" />
        <path
           id="path3951"
           class="cls-1"
           d="m 82,51.73 v 85"
           transform="translate(-5.49,-6.38)" />
      </g>
      <path
         d="M 142.85,117.19 138,132.6 h -18.72 l 26.79,-76.7 h 21.51 L 192,132.6 h -19.59 l -4.14,-15.41 z M 156.42,73 l -9.31,30 h 17.36 z"
         transform="translate(-5.49,-6.38)"
         id="path1846"
         style="stroke-width:1.35929" />
      <g
         id="g3975"
         style="stroke-width:1.35929">
        <path
           id="path3963"
           class="cls-1"
           d="M 82,136.77 8.33,179.29"
           transform="translate(-5.49,-6.38)" />
        <path
           id="path3965"
           class="cls-1"
           d="m 82,136.77 73.65,42.52"
           transform="translate(-5.49,-6.38)" />
        <path
           id="path3967"
           class="cls-1"
           d="m 82,306.85 73.65,-42.52"
           transform="translate(-5.49,-6.38)" />
        <path
           id="path3969"
           class="cls-1"
           d="m 155.62,179.29 v 85"
           transform="translate(-5.49,-6.38)" />
        <path
           id="path3971"
           class="cls-1"
           d="M 82,306.85 8.33,264.33"
           transform="translate(-5.49,-6.38)" />
        <path
           id="path3973"
           class="cls-1"
           d="m 8.33,179.29 v 85"
           transform="translate(-5.49,-6.38)" />
      </g>
      <path
         d="m 96,207.49 v -1.26 c 0,-6.33 -5.17,-10.12 -13.8,-10.12 -8,0 -13.11,3 -13.11,7.82 0,3.22 2.3,5.4 7,6.55 l 15.52,3.57 c 16.39,3.95 22.79,10.23 22.79,22.19 0,16 -12.07,25.65 -32.08,25.65 -20.7,0 -32.66,-9.89 -32.78,-27 h 17.25 c 0.35,8.74 5.29,12.65 15.76,12.65 8.85,0 14.26,-3.33 14.26,-8.74 0,-3.68 -2.76,-6.32 -8.28,-7.7 l -13.92,-3.45 c -8.16,-2 -13.22,-4.14 -16.67,-7.13 -3.8,-3.34 -6.1,-8.86 -6.1,-15.07 0,-14.83 11.5,-23.69 30.82,-23.69 12.77,0 21.62,3.91 26.45,11.62 2.3,3.68 3.45,7.59 4.14,14.14 z"
         transform="translate(-5.49,-6.38)"
         id="path1855"
         style="stroke-width:1.35929" />
      <g
         id="g3989"
         style="stroke-width:1.35929">
        <path
           id="path3977"
           class="cls-1"
           d="m 229.27,136.77 -73.65,42.52"
           transform="translate(-5.49,-6.38)" />
        <path
           id="path3979"
           class="cls-1"
           d="m 229.27,136.77 73.64,42.52"
           transform="translate(-5.49,-6.38)" />
        <path
           id="path3981"
           class="cls-1"
           d="m 229.27,306.85 73.64,-42.52"
           transform="translate(-5.49,-6.38)" />
        <path
           id="path3983"
           class="cls-1"
           d="m 302.91,179.29 v 85"
           transform="translate(-5.49,-6.38)" />
        <path
           id="path3985"
           class="cls-1"
           d="M 229.27,306.85 155.62,264.33"
           transform="translate(-5.49,-6.38)" />
        <path
           id="path3987"
           class="cls-1"
           d="m 155.62,179.29 v 85"
           transform="translate(-5.49,-6.38)" />
      </g>
      <path
         d="m 246.34,208 c -1.72,-7.36 -7.36,-11.61 -15.52,-11.61 -12.65,0 -19.9,9.31 -19.9,25.41 0,16.1 7.25,25.53 19.44,25.53 9,0 14.14,-4.37 16.21,-13.57 h 18.29 c -2.07,17.37 -15.07,28.18 -34,28.18 -22.66,0 -37.15,-15.64 -37.15,-40.14 0,-24.5 14.26,-40 37,-40 18.52,0 31.17,9.89 33.24,26.22 z"
         transform="translate(-5.49,-6.38)"
         id="path1864"
         style="stroke-width:1.35929" />
    </g>
    <text
       xml:space="preserve"
       style="font-style:normal;font-variant:normal;font-weight:normal;font-stretch:normal;font-size:2.64583px;line-height:1.25;font-family:'Nimbus Sans';-inkscape-font-specification:'Nimbus Sans, Normal';font-variant-ligatures:normal;font-variant-caps:normal;font-variant-numeric:normal;font-variant-east-asian:normal;text-align:center;letter-spacing:0px;word-spacing:0px;writing-mode:lr-tb;text-anchor:middle;fill:#000000;fill-opacity:1;stroke:none;stroke-width:0.264583"
       x="22.07889"
       y="38.60957"
       id="text3266"><tspan
         sodipodi:role="line"
         x="22.07889"
         y="38.60957"
         style="font-style:normal;font-variant:normal;font-weight:normal;font-stretch:normal;font-size:2.64583px;font-family:'Nimbus Sans';-inkscape-font-specification:'Nimbus Sans, Normal';font-variant-ligatures:normal;font-variant-caps:normal;font-variant-numeric:normal;font-variant-east-asian:normal;stroke-width:0.264583"
         id="tspan3268">Aalto Scientific Computing</tspan></text>
    <text
       xml:space="preserve"
       style="font-style:normal;font-variant:normal;font-weight:normal;font-stretch:normal;font-size:2.64583px;line-height:1.25;font-family:'Nimbus Sans';-inkscape-font-specification:'Nimbus Sans, Normal';font-variant-ligatures:normal;font-variant-caps:normal;font-variant-numeric:normal;font-variant-east-asian:normal;text-align:center;letter-spacing:0px;word-spacing:0px;writing-mode:lr-tb;text-anchor:middle;fill:#000000;fill-opacity:1;stroke:none;stroke-width:0.264583"
       x="22.039377"
       y="42.508816"
       id="text3274"><tspan
         sodipodi:role="line"
         id="tspan3272"
         x="22.039377"
         y="42.508816"
         style="font-style:normal;font-variant:normal;font-weight:normal;font-stretch:normal;font-size:2.64583px;font-family:'Nimbus Sans';-inkscape-font-specification:'Nimbus Sans, Normal';font-variant-ligatures:normal;font-variant-caps:normal;font-variant-numeric:normal;font-variant-east-asian:normal;stroke-width:0.264583">scicomp.aalto.fi</tspan></text>
  </g>
  <g
     inkscape:groupmode="layer"
     id="layer2"
     inkscape:label="cut line"
     style="display:inline"
     transform="translate(0.33694334,0.3500015)">
    <path
       sodipodi:type="star"
       style="fill:none;fill-rule:evenodd;stroke:#ff00ff;stroke-width:0.38551;stroke-linecap:round;stroke-linejoin:round;stroke-miterlimit:11.34;stroke-dasharray:none;paint-order:normal"
       id="path1982"
       sodipodi:sides="6"
       sodipodi:cx="-22.164492"
       sodipodi:cy="27.420036"
       sodipodi:r1="19.661175"
       sodipodi:r2="17.027077"
       sodipodi:arg1="0.52359878"
       sodipodi:arg2="1.0471976"
       inkscape:flatsided="true"
       inkscape:rounded="0"
       inkscape:randomized="0"
       d="m -5.1374149,37.250624 -17.0270771,9.830587 -17.027077,-9.830587 1e-6,-19.661175 17.027076,-9.8305875 17.0270772,9.8305875 z"
       transform="matrix(1.2969923,0,0,1.2969727,50.744221,-10.163039)" />
  </g>
</svg>
